<?xml version="1.0" encoding="UTF-8"?>
<svg version="1.1" xmlns="http://www.w3.org/2000/svg" width="223" height="223">
<path d="M0 0 C0.68247803 0.00054382 1.36495605 0.00108765 2.06811523 0.00164795 C13.08260568 0.04192915 23.43908953 0.84349808 33.9375 4.375 C34.59057129 4.59462402 35.24364258 4.81424805 35.91650391 5.04052734 C63.81822593 14.77272513 87.40399091 33.88972694 100.63183594 60.47045898 C108.60728113 77.13544526 112.33741149 92.9486467 112.3125 111.4375 C112.31195618 112.11997803 112.31141235 112.80245605 112.31085205 113.50561523 C112.27057085 124.52010568 111.46900192 134.87658953 107.9375 145.375 C107.71787598 146.02807129 107.49825195 146.68114258 107.27197266 147.35400391 C97.53977487 175.25572593 78.42277306 198.84149091 51.84204102 212.06933594 C35.17705474 220.04478113 19.3638533 223.77491149 0.875 223.75 C0.19252197 223.74945618 -0.48995605 223.74891235 -1.19311523 223.74835205 C-12.20760568 223.70807085 -22.56408953 222.90650192 -33.0625 219.375 C-33.71557129 219.15537598 -34.36864258 218.93575195 -35.04150391 218.70947266 C-62.94322593 208.97727487 -86.52899091 189.86027306 -99.75683594 163.27954102 C-107.73253837 146.61401722 -111.46128252 130.8017115 -111.4375 112.3125 C-111.43728851 111.63068665 -111.43707703 110.94887329 -111.43685913 110.24639893 C-111.40268616 99.18763833 -110.44651176 88.94864985 -107.0625 78.375 C-106.70027344 77.23933594 -106.33804688 76.10367188 -105.96484375 74.93359375 C-95.90832739 46.6048985 -75.61610074 23.47708691 -48.5 10.5 C-32.61552536 3.1573106 -17.48139066 -0.02355405 0 0 Z " fill="#2C94D0" transform="translate(111.0625,-0.375)"/>
<path d="M0 0 C1.65 0 3.3 0 5 0 C5 3.3 5 6.6 5 10 C8.3 10 11.6 10 15 10 C15 7.03 15 4.06 15 1 C16.65 1 18.3 1 20 1 C20 8.92 20 16.84 20 25 C18.35 25 16.7 25 15 25 C15 22.03 15 19.06 15 16 C12.03 16 9.06 16 6 16 C6 19.3 6 22.6 6 26 C-0.75 26.125 -0.75 26.125 -3 25 C-5.27168726 25.08349674 -7.54251336 25.19127558 -9.8125 25.3125 C-16.51459391 25.30562606 -16.51459391 25.30562606 -20.375 22.875 C-23.44795605 17.82223433 -22.9800363 10.60986298 -22 5 C-20.44140625 2.5859375 -20.44140625 2.5859375 -18 1 C-15.30365505 0.70755478 -13.04552111 0.61698554 -10.375 0.75 C-9.694375 0.76804687 -9.01375 0.78609375 -8.3125 0.8046875 C-6.54114817 0.85369723 -4.77045734 0.92536714 -3 1 C-2.34 1 -1.68 1 -1 1 C-0.67 0.67 -0.34 0.34 0 0 Z " fill="#49A1D2" transform="translate(161,98)"/>
<path d="M0 0 C1.18432617 0.00966797 1.18432617 0.00966797 2.39257812 0.01953125 C3.19244141 0.03628906 3.99230469 0.05304688 4.81640625 0.0703125 C6.05680664 0.08384766 6.05680664 0.08384766 7.32226562 0.09765625 C9.34127333 0.12099738 11.36012981 0.15685962 13.37890625 0.1953125 C13.37890625 2.5053125 13.37890625 4.8153125 13.37890625 7.1953125 C11.72890625 7.5253125 10.07890625 7.8553125 8.37890625 8.1953125 C8.37890625 14.1353125 8.37890625 20.0753125 8.37890625 26.1953125 C6.06890625 26.1953125 3.75890625 26.1953125 1.37890625 26.1953125 C1.37890625 20.2553125 1.37890625 14.3153125 1.37890625 8.1953125 C-0.60109375 8.5253125 -2.58109375 8.8553125 -4.62109375 9.1953125 C-4.95109375 14.8053125 -5.28109375 20.4153125 -5.62109375 26.1953125 C-7.60109375 26.1953125 -9.58109375 26.1953125 -11.62109375 26.1953125 C-11.62109375 18.2753125 -11.62109375 10.3553125 -11.62109375 2.1953125 C-3.74609375 -0.0546875 -3.74609375 -0.0546875 0 0 Z " fill="#61ACD2" transform="translate(99.62109375,96.8046875)"/>
<path d="M0 0 C0.74507812 0.01353516 1.49015625 0.02707031 2.2578125 0.04101562 C4.08885416 0.07622796 5.91952169 0.13003149 7.75 0.1875 C7.75 2.1675 7.75 4.1475 7.75 6.1875 C2.8 6.1875 -2.15 6.1875 -7.25 6.1875 C-7.25 7.5075 -7.25 8.8275 -7.25 10.1875 C-2.3 10.1875 2.65 10.1875 7.75 10.1875 C7.75 12.1675 7.75 14.1475 7.75 16.1875 C2.8 16.1875 -2.15 16.1875 -7.25 16.1875 C-6.92 17.1775 -6.59 18.1675 -6.25 19.1875 C0.68 19.6825 0.68 19.6825 7.75 20.1875 C7.75 21.8375 7.75 23.4875 7.75 25.1875 C4.97813012 25.29537818 2.21044463 25.37473327 -0.5625 25.4375 C-1.34818359 25.47101563 -2.13386719 25.50453125 -2.94335938 25.5390625 C-8.73664637 25.63767164 -8.73664637 25.63767164 -11.28125 23.40625 C-12.64448232 20.28400825 -12.44390691 17.54855318 -12.25 14.1875 C-11.59 14.1875 -10.93 14.1875 -10.25 14.1875 C-10.91 13.1975 -11.57 12.2075 -12.25 11.1875 C-12.5859375 9.25 -12.5859375 9.25 -12.625 7.1875 C-12.65335938 6.506875 -12.68171875 5.82625 -12.7109375 5.125 C-12.25 3.1875 -12.25 3.1875 -10.7421875 1.44921875 C-7.2058338 -0.3411296 -3.86291451 -0.13308628 0 0 Z " fill="#DFF0F5" transform="translate(54.25,97.8125)"/>
<path d="M0 0 C0.80244141 0.00966797 1.60488281 0.01933594 2.43164062 0.02929688 C3.26501953 0.05443359 4.09839844 0.07957031 4.95703125 0.10546875 C6.22450195 0.12577148 6.22450195 0.12577148 7.51757812 0.14648438 C9.60183509 0.18181076 11.68576402 0.23561736 13.76953125 0.29296875 C13.76953125 1.94296875 13.76953125 3.59296875 13.76953125 5.29296875 C8.81953125 5.62296875 3.86953125 5.95296875 -1.23046875 6.29296875 C-1.56046875 7.61296875 -1.89046875 8.93296875 -2.23046875 10.29296875 C2.71953125 10.29296875 7.66953125 10.29296875 12.76953125 10.29296875 C12.76953125 11.61296875 12.76953125 12.93296875 12.76953125 14.29296875 C8.14953125 14.29296875 3.52953125 14.29296875 -1.23046875 14.29296875 C-1.23046875 15.94296875 -1.23046875 17.59296875 -1.23046875 19.29296875 C3.38953125 19.29296875 8.00953125 19.29296875 12.76953125 19.29296875 C12.76953125 20.94296875 12.76953125 22.59296875 12.76953125 24.29296875 C10.18507352 24.40115535 7.60515773 24.48034112 5.01953125 24.54296875 C4.28992188 24.57648438 3.5603125 24.61 2.80859375 24.64453125 C-0.53575016 24.7053375 -2.81942714 24.53752883 -5.71875 22.8125 C-7.92747415 19.13129309 -7.77819581 15.94398686 -7.66796875 11.73046875 C-7.67505859 10.96283203 -7.68214844 10.19519531 -7.68945312 9.40429688 C-7.62631206 3.8333117 -7.62631206 3.8333117 -5.96777344 1.56933594 C-3.80451381 -0.01997285 -2.66246383 -0.05664817 0 0 Z " fill="#DFF0F4" transform="translate(122.23046875,98.70703125)"/>
<path d="M0 0 C1.32 0 2.64 0 4 0 C4 2.97 4 5.94 4 9 C7.3 9 10.6 9 14 9 C14 6.03 14 3.06 14 0 C15.65 0 17.3 0 19 0 C19 7.92 19 15.84 19 24 C17.35 24 15.7 24 14 24 C14 20.7 14 17.4 14 14 C10.7 14 7.4 14 4 14 C4 17.3 4 20.6 4 24 C2.68 24 1.36 24 0 24 C0 16.08 0 8.16 0 0 Z " fill="#F0F9FA" transform="translate(162,99)"/>
<path d="M0 0 C2.39706123 -0.10854617 4.78915838 -0.18753157 7.1875 -0.25 C7.86103516 -0.28351563 8.53457031 -0.31703125 9.22851562 -0.3515625 C12.83525583 -0.42193792 14.85119949 -0.09042039 17.95703125 1.796875 C20 4 20 4 20.5 7.5 C19.9732424 11.18730321 19.57971513 12.41476086 17 15 C14.30078125 15.609375 14.30078125 15.609375 11.3125 15.75 C10.31863281 15.80671875 9.32476562 15.8634375 8.30078125 15.921875 C7.54152344 15.94765625 6.78226562 15.9734375 6 16 C5.67 18.97 5.34 21.94 5 25 C3.35 25 1.7 25 0 25 C-0.10807131 23.06372231 -0.1856225 21.12572244 -0.25 19.1875 C-0.29640625 18.10855469 -0.3428125 17.02960938 -0.390625 15.91796875 C0 13 0 13 1.65625 11.125 C4.54315104 9.7392875 6.5616114 9.69862898 9.75 9.8125 C10.73484375 9.83957031 11.7196875 9.86664063 12.734375 9.89453125 C13.48203125 9.92933594 14.2296875 9.96414062 15 10 C15 8.68 15 7.36 15 6 C10.05 6 5.1 6 0 6 C0 4.02 0 2.04 0 0 Z " fill="#CBE5EE" transform="translate(65,98)"/>
<path d="M0 0 C0.69738281 0.01804687 1.39476562 0.03609375 2.11328125 0.0546875 C3.82611539 0.10161446 5.53823824 0.17335395 7.25 0.25 C7.25 1.9 7.25 3.55 7.25 5.25 C5.96802734 5.34087891 5.96802734 5.34087891 4.66015625 5.43359375 C3.55542969 5.51738281 2.45070312 5.60117188 1.3125 5.6875 C0.21035156 5.76871094 -0.89179688 5.84992188 -2.02734375 5.93359375 C-4.66109903 5.95418084 -4.66109903 5.95418084 -5.75 7.25 C-5.84858603 8.7055937 -5.87972143 10.16607919 -5.875 11.625 C-5.87757813 12.41648437 -5.88015625 13.20796875 -5.8828125 14.0234375 C-5.83617666 16.42343496 -5.83617666 16.42343496 -4.75 19.25 C-0.79 19.25 3.17 19.25 7.25 19.25 C7.25 20.9 7.25 22.55 7.25 24.25 C-5.29418372 25.16662506 -5.29418372 25.16662506 -10.125 22.125 C-13.19795605 17.07223433 -12.7300363 9.85986298 -11.75 4.25 C-8.74280995 -0.43121776 -5.1311659 -0.25219341 0 0 Z " fill="#E6F4F7" transform="translate(150.75,98.75)"/>
<path d="M0 0 C0 1.98 0 3.96 0 6 C4.95 6 9.9 6 15 6 C15 7.32 15 8.64 15 10 C14.25234375 10.04898438 13.5046875 10.09796875 12.734375 10.1484375 C11.25710937 10.26058594 11.25710937 10.26058594 9.75 10.375 C8.77546875 10.44460937 7.8009375 10.51421875 6.796875 10.5859375 C3.68415798 10.8984174 3.68415798 10.8984174 0 13 C0 16.96 0 20.92 0 25 C-0.33 25 -0.66 25 -1 25 C-1 22.36 -1 19.72 -1 17 C-5.95 17 -10.9 17 -16 17 C-16 17.66 -16 18.32 -16 19 C-11.71 19 -7.42 19 -3 19 C-3 19.33 -3 19.66 -3 20 C-7.62 20 -12.24 20 -17 20 C-17.33 18.68 -17.66 17.36 -18 16 C-13.05 16 -8.1 16 -3 16 C-3 14.02 -3 12.04 -3 10 C-7.95 10 -12.9 10 -18 10 C-18 8.68 -18 7.36 -18 6 C-13.05 6 -8.1 6 -3 6 C-3 4.35 -3 2.7 -3 1 C-1 0 -1 0 0 0 Z " fill="#489FCF" transform="translate(65,98)"/>
<path d="M0 0 C1.134375 0.020625 2.26875 0.04125 3.4375 0.0625 C2.4475 0.7225 1.4575 1.3825 0.4375 2.0625 C0.10507477 4.93077076 -0.07516282 7.6260561 -0.125 10.5 C-0.30831365 18.68122048 -0.30831365 18.68122048 -2.5625 22.0625 C-1.9025 22.0625 -1.2425 22.0625 -0.5625 22.0625 C-0.5625 28.0025 -0.5625 33.9425 -0.5625 40.0625 C1.0875 40.0625 2.7375 40.0625 4.4375 40.0625 C4.4375 40.7225 4.4375 41.3825 4.4375 42.0625 C-1.71484375 42.16015625 -1.71484375 42.16015625 -3.5625 42.0625 C-4.5625 41.0625 -4.5625 41.0625 -4.67602539 39.20483398 C-4.67078857 38.41407471 -4.66555176 37.62331543 -4.66015625 36.80859375 C-4.65693359 35.95458984 -4.65371094 35.10058594 -4.65039062 34.22070312 C-4.64201172 33.32287109 -4.63363281 32.42503906 -4.625 31.5 C-4.62048828 30.59830078 -4.61597656 29.69660156 -4.61132812 28.76757812 C-4.59950225 26.53248686 -4.5830222 24.29752563 -4.5625 22.0625 C-5.2225 22.0625 -5.8825 22.0625 -6.5625 22.0625 C-6.0675 20.5775 -6.0675 20.5775 -5.5625 19.0625 C-5.42880479 17.66731467 -5.33920092 16.26756538 -5.28125 14.8671875 C-5.24386719 14.06925781 -5.20648437 13.27132812 -5.16796875 12.44921875 C-5.09732877 10.7669408 -5.02701929 9.08464895 -4.95703125 7.40234375 C-4.61291286 0.0809283 -4.61291286 0.0809283 0 0 Z " fill="#E1F1F6" transform="translate(33.5625,89.9375)"/>
<path d="M0 0 C2.875 -0.1875 2.875 -0.1875 6 0 C8.45688902 3.68533353 8.40647044 6.72250681 8.5625 11 C8.75044259 16.57912011 8.75044259 16.57912011 10 22 C9.34 22 8.68 22 8 22 C8 28.27 8 34.54 8 41 C5.29120665 42.35439668 2.99066732 42.06501451 0 42 C0 41.34 0 40.68 0 40 C1.32 40 2.64 40 4 40 C4 34.06 4 28.12 4 22 C4.66 22 5.32 22 6 22 C5.34 21.01 4.68 20.02 4 19 C3.71399174 15.34705909 3.58497533 11.73357754 3.52148438 8.07226562 C3.44966295 6.0419966 3.2338846 4.01803088 3 2 C2.01 1.34 1.02 0.68 0 0 Z " fill="#C9E4EF" transform="translate(187,90)"/>
<path d="M0 0 C5.28 0 10.56 0 16 0 C16 1.32 16 2.64 16 4 C14.35 4 12.7 4 11 4 C11 10.6 11 17.2 11 24 C9.35 24 7.7 24 6 24 C6 17.73 6 11.46 6 5 C4.02 5 2.04 5 0 5 C0 3.35 0 1.7 0 0 Z " fill="#ECF7F8" transform="translate(96,99)"/>
<path d="M0 0 C0.33 0.99 0.66 1.98 1 3 C2.60681641 2.98259766 2.60681641 2.98259766 4.24609375 2.96484375 C5.64322743 2.95546701 7.04036299 2.94636669 8.4375 2.9375 C9.14455078 2.92912109 9.85160156 2.92074219 10.58007812 2.91210938 C12.38693559 2.90346412 14.19387603 2.94779989 16 3 C16.33 3.33 16.66 3.66 17 4 C17.66 2.68 18.32 1.36 19 0 C19.05389087 1.95803507 19.09274217 3.91648909 19.125 5.875 C19.14820313 6.96554688 19.17140625 8.05609375 19.1953125 9.1796875 C19 12 19 12 17 14 C16.30251417 15.31747324 15.63040043 16.64914193 15 18 C15 16.35 15 14.7 15 13 C10.38 13 5.76 13 1 13 C1 11.35 1 9.7 1 8 C5.62 8 10.24 8 15 8 C15 6.68 15 5.36 15 4 C10.05 4 5.1 4 0 4 C0 2.68 0 1.36 0 0 Z " fill="#76B8D9" transform="translate(120,105)"/>
<path d="M0 0 C1.65 0 3.3 0 5 0 C5 7.92 5 15.84 5 24 C3.35 24 1.7 24 0 24 C0 16.08 0 8.16 0 0 Z " fill="#ECF5F9" transform="translate(88,99)"/>
<path d="M0 0 C1.27230469 0.01804687 2.54460937 0.03609375 3.85546875 0.0546875 C5.31919922 0.08949219 5.31919922 0.08949219 6.8125 0.125 C6.8125 1.445 6.8125 2.765 6.8125 4.125 C1.3675 4.62 1.3675 4.62 -4.1875 5.125 C-4.5175 8.095 -4.8475 11.065 -5.1875 14.125 C-6.8375 14.125 -8.4875 14.125 -10.1875 14.125 C-10.26832094 12.16733719 -10.32660778 10.20873272 -10.375 8.25 C-10.40980469 7.15945312 -10.44460937 6.06890625 -10.48046875 4.9453125 C-10.38378906 4.01460938 -10.28710938 3.08390625 -10.1875 2.125 C-6.4507157 -0.36618953 -4.44298181 -0.0815226 0 0 Z " fill="#EAF6F7" transform="translate(75.1875,108.875)"/>
<path d="M0 0 C1.99954746 -0.04254356 4.00041636 -0.04080783 6 0 C7 1 7 1 7.11352539 2.76586914 C7.10828857 3.51473389 7.10305176 4.26359863 7.09765625 5.03515625 C7.09282227 6.24848633 7.09282227 6.24848633 7.08789062 7.48632812 C7.07951172 8.33646484 7.07113281 9.18660156 7.0625 10.0625 C7.05798828 10.91650391 7.05347656 11.77050781 7.04882812 12.65039062 C7.03700373 14.76695663 7.01906769 16.88348685 7 19 C6.01 19 5.02 19 4 19 C3.96261719 17.79601562 3.92523438 16.59203125 3.88671875 15.3515625 C3.82107072 13.77600989 3.75462299 12.20049046 3.6875 10.625 C3.65366211 9.43390625 3.65366211 9.43390625 3.61914062 8.21875 C3.52214925 6.13784419 3.27005175 4.06558668 3 2 C2.01 1.34 1.02 0.68 0 0 Z " fill="#EAF6F9" transform="translate(187,90)"/>
<path d="M0 0 C0.99 0 1.98 0 3 0 C3.33 6.27 3.66 12.54 4 19 C2.68 18.67 1.36 18.34 0 18 C0 12.06 0 6.12 0 0 Z " fill="#EDF8FA" transform="translate(30,112)"/>
<path d="M0 0 C4.62 0 9.24 0 14 0 C14 1.32 14 2.64 14 4 C9.38 4 4.76 4 0 4 C0 2.68 0 1.36 0 0 Z " fill="#409ACD" transform="translate(121,104)"/>
<path d="M0 0 C0.66 0 1.32 0 2 0 C2.02683987 2.97922593 2.04676037 5.95821295 2.0625 8.9375 C2.07087891 9.78763672 2.07925781 10.63777344 2.08789062 11.51367188 C2.09111328 12.32255859 2.09433594 13.13144531 2.09765625 13.96484375 C2.10289307 14.7137085 2.10812988 15.46257324 2.11352539 16.23413086 C2 18 2 18 1 19 C-0.99958364 19.04080783 -3.00045254 19.04254356 -5 19 C-5 18.34 -5 17.68 -5 17 C-3.68 16.67 -2.36 16.34 -1 16 C-0.67 10.72 -0.34 5.44 0 0 Z " fill="#EAF5F7" transform="translate(192,113)"/>
<path d="M0 0 C4.95 0 9.9 0 15 0 C15 0.99 15 1.98 15 3 C10.38 3 5.76 3 1 3 C0.67 2.01 0.34 1.02 0 0 Z " fill="#FBFEFB" transform="translate(120,119)"/>
<path d="M0 0 C4.95 0 9.9 0 15 0 C14.67 0.99 14.34 1.98 14 3 C9.38 3 4.76 3 0 3 C0 2.01 0 1.02 0 0 Z " fill="#FCFEFD" transform="translate(66,100)"/>
<path d="M0 0 C4.62 0 9.24 0 14 0 C14 0.99 14 1.98 14 3 C9.38 3.33 4.76 3.66 0 4 C0 2.68 0 1.36 0 0 Z " fill="#FCFEFB" transform="translate(120,100)"/>
<path d="M0 0 C0.99 0.33 1.98 0.66 3 1 C3 7.6 3 14.2 3 21 C5.31 21 7.62 21 10 21 C10 21.66 10 22.32 10 23 C3.84765625 23.09765625 3.84765625 23.09765625 2 23 C1 22 1 22 0.88647461 20.14233398 C0.89171143 19.35157471 0.89694824 18.56081543 0.90234375 17.74609375 C0.90556641 16.89208984 0.90878906 16.03808594 0.91210938 15.15820312 C0.92048828 14.26037109 0.92886719 13.36253906 0.9375 12.4375 C0.94201172 11.53580078 0.94652344 10.63410156 0.95117188 9.70507812 C0.96299775 7.46998686 0.9794778 5.23502563 1 3 C0.34 3 -0.32 3 -1 3 C-0.67 2.01 -0.34 1.02 0 0 Z " fill="#B8D9E8" transform="translate(28,109)"/>
<path d="M0 0 C4.62 0 9.24 0 14 0 C14 0.66 14 1.32 14 2 C11.23547967 3.38226016 8.9538637 3.09525387 5.875 3.0625 C4.77929688 3.05347656 3.68359375 3.04445313 2.5546875 3.03515625 C1.29011719 3.01775391 1.29011719 3.01775391 0 3 C0 2.01 0 1.02 0 0 Z " fill="#2F92CB" transform="translate(121,114)"/>
<path d="M0 0 C2.6015625 -0.29296875 2.6015625 -0.29296875 5.625 -0.1875 C7.12933594 -0.14689453 7.12933594 -0.14689453 8.6640625 -0.10546875 C9.43492188 -0.07066406 10.20578125 -0.03585938 11 0 C11 0.99 11 1.98 11 3 C6.71 3 2.42 3 -2 3 C-1.34 2.01 -0.68 1.02 0 0 Z " fill="#3395CD" transform="translate(68,105)"/>
<path d="M0 0 C3.3 0 6.6 0 10 0 C10 0.99 10 1.98 10 3 C6.37 3 2.74 3 -1 3 C-0.67 2.01 -0.34 1.02 0 0 Z " fill="#FDFEFB" transform="translate(147,119)"/>
<path d="M0 0 C0.33 0 0.66 0 1 0 C1 6.27 1 12.54 1 19 C0.01 19.33 -0.98 19.66 -2 20 C-1.505 18.515 -1.505 18.515 -1 17 C-0.85596652 15.66636297 -0.75409577 14.32781954 -0.68359375 12.98828125 C-0.64169922 12.23095703 -0.59980469 11.47363281 -0.55664062 10.69335938 C-0.51732422 9.90767578 -0.47800781 9.12199219 -0.4375 8.3125 C-0.39431641 7.51521484 -0.35113281 6.71792969 -0.30664062 5.89648438 C-0.20072632 3.93118553 -0.09987449 1.96561504 0 0 Z " fill="#62ADD8" transform="translate(33,92)"/>
</svg>
