<?xml version="1.0" encoding="UTF-8"?>
<svg version="1.1" xmlns="http://www.w3.org/2000/svg" width="199" height="199">
<path d="M0 0 C1.60294922 0.77150391 1.60294922 0.77150391 3.23828125 1.55859375 C10.99694202 5.50630246 17.55164422 10.16668859 24 16 C24.85464844 16.77214844 25.70929688 17.54429688 26.58984375 18.33984375 C42.84206579 33.79072356 54.8708424 56.39315177 56.17700195 79.07348633 C56.72175101 108.04068004 56.72175101 108.04068004 52 122 C51.79101074 122.63502441 51.58202148 123.27004883 51.36669922 123.92431641 C43.31660147 147.86958845 25.21459085 168.18053827 3 180 C-1.90984663 182.3285472 -6.85524697 184.27817777 -12 186 C-13.22460938 186.41507813 -14.44921875 186.83015625 -15.7109375 187.2578125 C-34.31067977 192.85946165 -56.64707038 192.20789295 -75 186 C-75.95253662 185.68651611 -75.95253662 185.68651611 -76.92431641 185.36669922 C-92.29878306 180.19799789 -104.60092936 171.38285575 -116 160 C-116.81339844 159.19820312 -117.62679687 158.39640625 -118.46484375 157.5703125 C-137.94223622 137.26055283 -143.55124996 110.50075226 -143.27734375 83.31640625 C-143.05669684 74.71117669 -141.75750352 67.12737879 -139 59 C-138.78037598 58.34902344 -138.56075195 57.69804688 -138.33447266 57.02734375 C-129.70590462 32.06373008 -111.38652407 12.53464523 -88.25 0.25 C-60.85605831 -12.95559969 -27.37452808 -13.26242318 0 0 Z " fill="#2F32BE" transform="translate(143,9)"/>
<path d="M0 0 C4.95520521 2.57289501 8.49116963 5.98233926 11 11 C11.65337047 16.10562356 11.78605642 20.57504105 8.8125 24.9375 C5.84548335 28.43198627 3.37116537 30.68172277 -1.328125 31.3125 C-8.14444655 31.63903037 -11.57465173 29.93601281 -16.75 25.5 C-19.70932322 21.94881213 -20.51530447 18.85644961 -20.375 14.15625 C-19.55463774 9.43916699 -16.97878714 5.70982578 -13.390625 2.609375 C-8.81475919 -0.37123484 -5.23634495 -0.66493269 0 0 Z " fill="#F0F1FC" transform="translate(151,91)"/>
<path d="M0 0 C3.24402014 2.04514313 5.51147048 3.77367633 7.875 6.8125 C8.205 9.4525 8.535 12.0925 8.875 14.8125 C1.615 16.1325 -5.645 17.4525 -13.125 18.8125 C-10.37294818 22.17370698 -10.37294818 22.17370698 -6.3125 22.3125 C-1.53674811 22.1712578 0.57864091 20.10885909 3.875 16.8125 C5.525 17.4725 7.175 18.1325 8.875 18.8125 C7.43814642 23.84148754 4.93263331 25.76927502 0.875 28.8125 C-2.83226756 30.66613378 -7.07904795 30.27240853 -11.125 29.8125 C-14.5625 28 -14.5625 28 -17.125 25.8125 C-17.7025 25.35875 -18.28 24.905 -18.875 24.4375 C-21.29722946 21.2886017 -21.97465672 17.80047011 -22.5625 13.9375 C-21.84685355 8.82573964 -19.42335894 4.76692399 -15.48046875 1.4140625 C-10.2389839 -1.92250347 -5.7141197 -2.17136549 0 0 Z " fill="#F0F2FC" transform="translate(69.125,92.1875)"/>
<path d="M0 0 C4.03959981 2.34963879 7.06938429 4.57403748 8.81640625 9.05078125 C8.81640625 11.03078125 8.81640625 13.01078125 8.81640625 15.05078125 C2.21640625 16.37078125 -4.38359375 17.69078125 -11.18359375 19.05078125 C-11.18359375 19.71078125 -11.18359375 20.37078125 -11.18359375 21.05078125 C-9.61418177 22.62019323 -8.04224381 22.29576595 -5.87109375 22.36328125 C-2.00130438 22.39872277 -2.00130438 22.39872277 1.00390625 19.98828125 C1.60203125 19.34890625 2.20015625 18.70953125 2.81640625 18.05078125 C6.06640625 18.30078125 6.06640625 18.30078125 8.81640625 19.05078125 C8.34166562 23.32344695 5.97305657 25.32458325 2.81640625 28.05078125 C-1.28493193 30.37856778 -5.56031843 30.7451515 -10.18359375 30.05078125 C-14.49645801 28.59278868 -16.82345687 26.5124952 -19.62109375 22.92578125 C-21.83624468 18.43769285 -22.08511191 13.93465789 -21.18359375 9.05078125 C-19.39598632 4.98112178 -17.00504659 2.61667098 -13.37109375 0.11328125 C-8.56970525 -1.48718158 -4.65829633 -2.02498392 0 0 Z " fill="#F2F3FC" transform="translate(101.18359375,91.94921875)"/>
<path d="M0 0 C2.31 0 4.62 0 7 0 C7 3.3 7 6.6 7 10 C9.31 10 11.62 10 14 10 C14 11.98 14 13.96 14 16 C11.69 16 9.38 16 7 16 C7.33 21.28 7.66 26.56 8 32 C9.65 32.33 11.3 32.66 13 33 C13 32.34 13 31.68 13 31 C13.99 31.33 14.98 31.66 16 32 C16.33 33.65 16.66 35.3 17 37 C13.97630333 40.02369667 11.30246465 40.39312296 7.09765625 40.59375 C3.5455804 39.58832071 2.17183059 37.95443851 0 35 C-0.59667889 31.70339503 -0.47420747 28.52364953 -0.3125 25.1875 C-0.28994141 24.30384766 -0.26738281 23.42019531 -0.24414062 22.50976562 C-0.18547428 20.3391109 -0.09579979 18.1693331 0 16 C-1.32 16 -2.64 16 -4 16 C-4 14.02 -4 12.04 -4 10 C-2.68 10 -1.36 10 0 10 C0 6.7 0 3.4 0 0 Z " fill="#F2F4FB" transform="translate(115,82)"/>
<path d="M0 0 C2.31 0 4.62 0 7 0 C7 14.52 7 29.04 7 44 C4.69 44 2.38 44 0 44 C0 29.48 0 14.96 0 0 Z " fill="#F3F4FE" transform="translate(38,78)"/>
<path d="M0 0 C4.85313985 0.59426202 8.82428559 3.02974301 13.0625 5.375 C13.0625 4.715 13.0625 4.055 13.0625 3.375 C13.7225 3.375 14.3825 3.375 15.0625 3.375 C15.0625 5.355 15.0625 7.335 15.0625 9.375 C16.3825 9.375 17.7025 9.375 19.0625 9.375 C19.08231934 9.92961914 19.10213867 10.48423828 19.12255859 11.05566406 C19.21807651 13.57923693 19.32764567 16.10201224 19.4375 18.625 C19.4684375 19.49769531 19.499375 20.37039062 19.53125 21.26953125 C19.56992188 22.11386719 19.60859375 22.95820312 19.6484375 23.828125 C19.69556885 24.99069824 19.69556885 24.99069824 19.74365234 26.17675781 C20.09276506 28.58365742 20.86801104 30.27102295 22.0625 32.375 C21.0725 32.705 20.0825 33.035 19.0625 33.375 C18.4025 34.695 17.7425 36.015 17.0625 37.375 C16.7325 34.405 16.4025 31.435 16.0625 28.375 C15.155 29.055625 14.2475 29.73625 13.3125 30.4375 C10.0625 32.375 10.0625 32.375 7.6875 32.125 C7.15125 31.8775 6.615 31.63 6.0625 31.375 C6.84625 31.1275 7.63 30.88 8.4375 30.625 C11.44269304 29.19395569 11.95248368 28.42754489 13.0625 25.375 C13.3925 24.385 13.7225 23.395 14.0625 22.375 C11.230332 22.04051741 11.230332 22.04051741 8.0625 22.375 C7.464375 23.035 6.86625 23.695 6.25 24.375 C3.2674147 27.10193513 1.09825907 26.85343833 -2.81640625 26.90625 C-5.66857265 26.19189525 -6.42322171 24.8133267 -7.9375 22.375 C-0.60809167 20.37263587 6.47185336 18.86201051 14.0625 18.375 C12.78770321 11.5374536 11.0310373 8.24876839 5.25 4.0625 C-0.39830613 2.28731807 -5.56601526 3.2264061 -10.9375 5.375 C-11.2675 4.055 -11.5975 2.735 -11.9375 1.375 C-7.96171343 0.88023545 -3.97399797 0.50731889 0 0 Z " fill="#3435B2" transform="translate(95.9375,88.625)"/>
<path d="M0 0 C0.33 0 0.66 0 1 0 C1 1.98 1 3.96 1 6 C1.66 5.67 2.32 5.34 3 5 C3 4.01 3 3.02 3 2 C4.32 2 5.64 2 7 2 C5.14876033 6.76033058 5.14876033 6.76033058 3.875 8.8125 C2.52029477 12.19926307 2.4509589 15.44495886 3 19 C5.40374246 23.80748493 8.11830395 26.73349826 13 29 C17.02390144 29.31903055 20.97322174 29.23456961 25 29 C25 29.66 25 30.32 25 31 C19.72 31 14.44 31 9 31 C8.67 30.34 8.34 29.68 8 29 C4.72226496 29.75150023 4.72226496 29.75150023 3 33 C-1.62 32.34 -6.24 31.68 -11 31 C-11 30.34 -11 29.68 -11 29 C-10.31292969 29.02320312 -9.62585938 29.04640625 -8.91796875 29.0703125 C-8.01691406 29.08835937 -7.11585937 29.10640625 -6.1875 29.125 C-5.29417969 29.14820312 -4.40085937 29.17140625 -3.48046875 29.1953125 C-0.74597286 29.18285827 -0.74597286 29.18285827 2 27 C1.65555119 24.52733235 1.65555119 24.52733235 1 22 C0.34 21.67 -0.32 21.34 -1 21 C-1 21.66 -1 22.32 -1 23 C-2.875 23.625 -2.875 23.625 -5 24 C-7 22 -7 22 -7.1953125 18.3046875 C-7.182009 16.82799892 -7.15814835 15.35137642 -7.125 13.875 C-7.11597656 13.12089844 -7.10695313 12.36679688 -7.09765625 11.58984375 C-7.0740687 9.72642746 -7.03819719 7.86317407 -7 6 C-4.69 6 -2.38 6 0 6 C0 4.02 0 2.04 0 0 Z " fill="#3033BC" transform="translate(129,92)"/>
<path d="M0 0 C2.875 1.4375 2.875 1.4375 5 4 C5.90705593 8.29865635 5.72920717 11.75427109 3.5 15.5625 C-0.0502437 17.60389013 -3.00285328 17.77813307 -7 17 C-9.5 15.5625 -9.5 15.5625 -11 13 C-11.60303852 9.8699429 -11.65919094 7.12399182 -11 4 C-7.77123438 0.10648852 -4.96361941 -0.8272699 0 0 Z " fill="#3235B8" transform="translate(150,98)"/>
<path d="M0 0 C1.65 0 3.3 0 5 0 C5 0.99 5 1.98 5 3 C6.56941198 4.56941198 8.14134994 4.2449847 10.3125 4.3125 C14.18228937 4.34794152 14.18228937 4.34794152 17.1875 1.9375 C17.785625 1.298125 18.38375 0.65875 19 0 C22.25 0.25 22.25 0.25 25 1 C24.52525937 5.2726657 22.15665032 7.273802 19 10 C14.90556482 12.32386862 10.61655072 12.70956472 6 12 C1.20316096 10.23575503 -1.80020068 7.65839855 -4 3 C-3.01 2.67 -2.02 2.34 -1 2 C-0.67 1.34 -0.34 0.68 0 0 Z " fill="#EFF0FB" transform="translate(85,110)"/>
<path d="M0 0 C0.66 0 1.32 0 2 0 C2.10957031 0.66386719 2.21914062 1.32773438 2.33203125 2.01171875 C3.21136023 6.90879478 3.99451714 10.90161428 7 15 C5.68 14.67 4.36 14.34 3 14 C3 13.34 3 12.68 3 12 C2.01 12 1.02 12 0 12 C-0.33 13.32 -0.66 14.64 -1 16 C-1.598125 16.12375 -2.19625 16.2475 -2.8125 16.375 C-5.26231348 16.95475985 -5.26231348 16.95475985 -8 19 C-11.25 19.23046875 -11.25 19.23046875 -15 19.1875 C-16.85625 19.17783203 -16.85625 19.17783203 -18.75 19.16796875 C-22 19 -22 19 -25 18 C-25.6875 15.9375 -25.6875 15.9375 -26 14 C-25.21625 14.495 -24.4325 14.99 -23.625 15.5 C-18.93130146 17.44222008 -15.01484698 17.72690779 -10 17 C-5.02756379 14.60586405 -2.72647357 11.61403219 0 7 C-2.19514873 6.0406843 -2.19514873 6.0406843 -5 6 C-6.4566388 7.26242029 -7.91067128 8.52905871 -9.3203125 9.84375 C-12.47468155 12.01512962 -15.29130738 11.42558768 -19 11 C-19.99 10.34 -20.98 9.68 -22 9 C-22 8.34 -22 7.68 -22 7 C-14.67098882 5.19889833 -7.52592433 3.6377902 0 3 C0 2.01 0 1.02 0 0 Z " fill="#3D3DAC" transform="translate(78,104)"/>
<path d="M0 0 C0.33 0 0.66 0 1 0 C1 6.6 1 13.2 1 20 C2.32 20.33 3.64 20.66 5 21 C4.484375 21.804375 3.96875 22.60875 3.4375 23.4375 C1.59207499 28.0109446 1.86042414 31.26442921 3 36 C4.4225861 39.43595207 4.4225861 39.43595207 6 42 C4.02 41.34 2.04 40.68 0 40 C0 42.31 0 44.62 0 47 C-2.64 47 -5.28 47 -8 47 C-8 46.67 -8 46.34 -8 46 C-5.69 46 -3.38 46 -1 46 C-1.00222061 45.45320587 -1.00444122 44.90641174 -1.00672913 44.3430481 C-1.02880686 38.66571708 -1.04391705 32.9883982 -1.05493164 27.31103516 C-1.05996872 25.19058741 -1.06679859 23.07014315 -1.07543945 20.94970703 C-1.08753234 17.90656678 -1.09323447 14.86347234 -1.09765625 11.8203125 C-1.10281754 10.86818878 -1.10797882 9.91606506 -1.11329651 8.93508911 C-1.11337204 8.05432709 -1.11344757 7.17356506 -1.11352539 6.26611328 C-1.115746 5.48889923 -1.11796661 4.71168518 -1.12025452 3.91091919 C-1 2 -1 2 0 0 Z " fill="#32359C" transform="translate(46,76)"/>
<path d="M0 0 C1.90066253 1.71964705 3.0861474 3.15998803 4.3125 5.4375 C6.58068569 8.88178197 8.24064588 10.21925331 12 12 C16.02375493 12.3237504 19.97308519 12.23457756 24 12 C24 12.66 24 13.32 24 14 C18.72 14 13.44 14 8 14 C7.67 13.34 7.34 12.68 7 12 C3.72226496 12.75150023 3.72226496 12.75150023 2 16 C-2.62 15.34 -7.24 14.68 -12 14 C-12 13.34 -12 12.68 -12 12 C-11.31292969 12.02320312 -10.62585938 12.04640625 -9.91796875 12.0703125 C-9.01691406 12.08835937 -8.11585937 12.10640625 -7.1875 12.125 C-6.29417969 12.14820312 -5.40085937 12.17140625 -4.48046875 12.1953125 C-1.74597286 12.18285827 -1.74597286 12.18285827 1 10 C0.65555119 7.52733235 0.65555119 7.52733235 0 5 C-0.66 4.67 -1.32 4.34 -2 4 C-2 3.34 -2 2.68 -2 2 C-1.34 2 -0.68 2 0 2 C0 1.34 0 0.68 0 0 Z " fill="#4141AE" transform="translate(130,109)"/>
<path d="M0 0 C2.4375 1.375 2.4375 1.375 4 3 C4 3.66 4 4.32 4 5 C-1.28 5.66 -6.56 6.32 -12 7 C-8.34982065 -0.3003587 -7.72252906 -0.53258821 0 0 Z " fill="#4041AE" transform="translate(66,98)"/>
<path d="M0 0 C2 1.375 2 1.375 3 3 C3 3.66 3 4.32 3 5 C1.2508503 5.33776684 -0.49936145 5.67003671 -2.25 6 C-3.71179688 6.2784375 -3.71179688 6.2784375 -5.203125 6.5625 C-8 7 -8 7 -12 7 C-11.62120265 4.80297535 -11.09789619 3.16124078 -9.9375 1.25 C-6.82239704 -0.75974385 -3.59563722 -0.56930923 0 0 Z " fill="#4847A6" transform="translate(99,98)"/>
<path d="M0 0 C4.85313985 0.59426202 8.82428559 3.02974301 13.0625 5.375 C13.3925 4.715 13.7225 4.055 14.0625 3.375 C13.7325 5.025 13.4025 6.675 13.0625 8.375 C10.76088823 7.22419412 8.53099606 6.06092949 6.3125 4.75 C0.27343406 2.19501056 -4.90029838 2.96011935 -10.9375 5.375 C-11.2675 4.055 -11.5975 2.735 -11.9375 1.375 C-7.96171343 0.88023545 -3.97399797 0.50731889 0 0 Z " fill="#3838AD" transform="translate(95.9375,88.625)"/>
<path d="M0 0 C0.33 0 0.66 0 1 0 C1 6.6 1 13.2 1 20 C2.32 20.33 3.64 20.66 5 21 C3.68 23.31 2.36 25.62 1 28 C0.67 28 0.34 28 0 28 C-0.19619224 23.70868391 -0.38048583 19.41693898 -0.5625 15.125 C-0.61857422 13.90167969 -0.67464844 12.67835937 -0.73242188 11.41796875 C-0.78076172 10.25136719 -0.82910156 9.08476563 -0.87890625 7.8828125 C-0.9260376 6.80402832 -0.97316895 5.72524414 -1.02172852 4.61376953 C-1 2 -1 2 0 0 Z " fill="#3738B4" transform="translate(46,76)"/>
<path d="M0 0 C0 0.66 0 1.32 0 2 C-0.99 2 -1.98 2 -3 2 C-3 2.66 -3 3.32 -3 4 C-1.02 4 0.96 4 3 4 C2.67 4.66 2.34 5.32 2 6 C-1.03336186 6.22893297 -3.97465051 6.36475845 -7 6 C-9.0625 4 -9.0625 4 -10 2 C-8.7090864 1.66376204 -7.41723903 1.33110751 -6.125 1 C-5.40570313 0.814375 -4.68640625 0.62875 -3.9453125 0.4375 C-2 0 -2 0 0 0 Z " fill="#3C3EAD" transform="translate(98,109)"/>
<path d="M0 0 C0.33 0 0.66 0 1 0 C1 1.98 1 3.96 1 6 C2.32 6 3.64 6 5 6 C5 11.61 5 17.22 5 23 C4.67 23 4.34 23 4 23 C4 17.72 4 12.44 4 7 C3.01 7 2.02 7 1 7 C1.33 7.99 1.66 8.98 2 10 C1.5625 12.6875 1.5625 12.6875 1 15 C0.67 15 0.34 15 0 15 C-2.27571116 5.98468271 -2.27571116 5.98468271 -1.125 1.875 C-0.75375 1.25625 -0.3825 0.6375 0 0 Z " fill="#6769BF" transform="translate(110,92)"/>
<path d="M0 0 C1.22589844 0.01353516 1.22589844 0.01353516 2.4765625 0.02734375 C3.41628906 0.04474609 3.41628906 0.04474609 4.375 0.0625 C4.375 1.0525 4.375 2.0425 4.375 3.0625 C1.16048731 4.66975635 -2.06112536 4.11998185 -5.625 4.0625 C-5.955 3.0725 -6.285 2.0825 -6.625 1.0625 C-4.21954362 -0.14022819 -2.67503047 -0.03821472 0 0 Z " fill="#3739B3" transform="translate(62.625,109.9375)"/>
<path d="M0 0 C0.66 0.99 1.32 1.98 2 3 C1.01 4.32 0.02 5.64 -1 7 C-5.62 6.34 -10.24 5.68 -15 5 C-15 4.34 -15 3.68 -15 3 C-14.00419922 3.01740234 -14.00419922 3.01740234 -12.98828125 3.03515625 C-6.43693213 3.11893409 -6.43693213 3.11893409 0 2 C0 1.34 0 0.68 0 0 Z " fill="#3739B2" transform="translate(133,118)"/>
<path d="M0 0 C0.33 0 0.66 0 1 0 C1 1.98 1 3.96 1 6 C1.66 5.67 2.32 5.34 3 5 C3 4.01 3 3.02 3 2 C4.32 2 5.64 2 7 2 C5.7508258 5.45925163 4.32472205 8.14693203 2 11 C2 9.68 2 8.36 2 7 C-0.97 7 -3.94 7 -7 7 C-7 6.67 -7 6.34 -7 6 C-4.69 6 -2.38 6 0 6 C0 4.02 0 2.04 0 0 Z " fill="#494AB2" transform="translate(129,92)"/>
<path d="M0 0 C1.65 0 3.3 0 5 0 C4.67 0.99 4.34 1.98 4 3 C5.32 3.33 6.64 3.66 8 4 C4.535 5.485 4.535 5.485 1 7 C1 6.01 1 5.02 1 4 C0.360625 3.87625 -0.27875 3.7525 -0.9375 3.625 C-1.618125 3.41875 -2.29875 3.2125 -3 3 C-3.33 2.34 -3.66 1.68 -4 1 C-2.68 1.33 -1.36 1.66 0 2 C0 1.34 0 0.68 0 0 Z " fill="#3539BA" transform="translate(135,88)"/>
<path d="M0 0 C0.33 0.99 0.66 1.98 1 3 C2.32 3 3.64 3 5 3 C5 3.66 5 4.32 5 5 C3.68 5.33 2.36 5.66 1 6 C1.103125 7.27875 1.20625 8.5575 1.3125 9.875 C1.37050781 10.59429687 1.42851563 11.31359375 1.48828125 12.0546875 C1.87393036 14.39519216 1.87393036 14.39519216 5 16 C3.68 16 2.36 16 1 16 C0 15 0 15 -0.09765625 11.62109375 C-0.09098369 10.22652923 -0.07902532 8.83198257 -0.0625 7.4375 C-0.05798828 6.72658203 -0.05347656 6.01566406 -0.04882812 5.28320312 C-0.03700864 3.52209987 -0.01907263 1.76103964 0 0 Z " fill="#3739AA" transform="translate(122,99)"/>
<path d="M0 0 C0.33 0 0.66 0 1 0 C1 2.97 1 5.94 1 9 C-1.31 9 -3.62 9 -6 9 C-6 7 -6 7 -4 5 C-2.99357052 3.67151309 -1.99307821 2.33849671 -1 1 C-0.67 0.67 -0.34 0.34 0 0 Z " fill="#4B4DBD" transform="translate(114,83)"/>
<path d="M0 0 C0.928125 0.0825 1.85625 0.165 2.8125 0.25 C2.8125 1.57 2.8125 2.89 2.8125 4.25 C-0.1575 4.25 -3.1275 4.25 -6.1875 4.25 C-4.36434338 1.00883268 -3.82500054 0.30000004 0 0 Z " fill="#2F32B7" transform="translate(95.1875,98.75)"/>
<path d="M0 0 C2 3 2 3 2 6 C2.66 6 3.32 6 4 6 C3.67 7.32 3.34 8.64 3 10 C1.88625 8.6078125 1.88625 8.6078125 0.75 7.1875 C-1.29025561 4.72873042 -3.32471323 2.78352451 -6 1 C-3.92446352 0.4465236 -2.15634036 0 0 0 Z " fill="#3E3EB2" transform="translate(157,90)"/>
<path d="M0 0 C0.33 0.99 0.66 1.98 1 3 C0.01 3.33 -0.98 3.66 -2 4 C-0.61189751 10.22414458 -0.61189751 10.22414458 2 16 C-1.875 14.25 -1.875 14.25 -3 12 C-3.203125 9.94140625 -3.203125 9.94140625 -3.25 7.5625 C-3.28867188 6.38880859 -3.28867188 6.38880859 -3.328125 5.19140625 C-2.92823089 2.52068491 -2.05300878 1.68022561 0 0 Z " fill="#4141AA" transform="translate(142,99)"/>
<path d="M0 0 C0.66 0 1.32 0 2 0 C2.125 2.875 2.125 2.875 2 6 C1.34 6.66 0.68 7.32 0 8 C-0.99 7.34 -1.98 6.68 -3 6 C-2.67 5.34 -2.34 4.68 -2 4 C-2.66 3.67 -3.32 3.34 -4 3 C-2.68 3 -1.36 3 0 3 C0 2.01 0 1.02 0 0 Z " fill="#4C4DB5" transform="translate(78,104)"/>
<path d="M0 0 C1.65 0.33 3.3 0.66 5 1 C4.67 1.99 4.34 2.98 4 4 C1.69 4 -0.62 4 -3 4 C-3 3.34 -3 2.68 -3 2 C-2.01 2 -1.02 2 0 2 C0 1.34 0 0.68 0 0 Z " fill="#3134B1" transform="translate(98,109)"/>
<path d="M0 0 C0.66 0 1.32 0 2 0 C2.474375 1.11375 2.94875 2.2275 3.4375 3.375 C4.25306463 5.26710994 5.07856355 7.15712709 6 9 C4.02 8.34 2.04 7.68 0 7 C0 4.69 0 2.38 0 0 Z " fill="#3F42AC" transform="translate(46,109)"/>
<path d="M0 0 C0.33 0.66 0.66 1.32 1 2 C0.01 2.99 -0.98 3.98 -2 5 C-0.35 5 1.3 5 3 5 C0.64561267 6.42944945 -0.48032433 7.08661261 -3.25 6.625 C-3.8275 6.41875 -4.405 6.2125 -5 6 C-2.25 1.125 -2.25 1.125 0 0 Z " fill="#4A4BA6" transform="translate(59,98)"/>
<path d="M0 0 C2.97 0.495 2.97 0.495 6 1 C6 1.66 6 2.32 6 3 C3.69 3.33 1.38 3.66 -1 4 C-0.67 2.68 -0.34 1.36 0 0 Z " fill="#2F31BB" transform="translate(61,99)"/>
<path d="M0 0 C1.98 0 3.96 0 6 0 C5.34 1.98 4.68 3.96 4 6 C3.34 6 2.68 6 2 6 C1.34 4.02 0.68 2.04 0 0 Z " fill="#393AA7" transform="translate(76,98)"/>
<path d="M0 0 C2 4 2 4 2 7 C3.32 7.66 4.64 8.32 6 9 C4.02 9 2.04 9 0 9 C0 6.03 0 3.06 0 0 Z " fill="#3332AD" transform="translate(122,82)"/>
<path d="M0 0 C0 0.66 0 1.32 0 2 C-1.98 2.66 -3.96 3.32 -6 4 C-6.99 3.01 -7.98 2.02 -9 1 C-5.846632 0.29925156 -3.27275026 0 0 0 Z " fill="#5D5ABB" transform="translate(109,107)"/>
<path d="M0 0 C0 2.31 0 4.62 0 7 C-0.99 6.67 -1.98 6.34 -3 6 C-3 5.34 -3 4.68 -3 4 C-3.66 3.67 -4.32 3.34 -5 3 C-4.34 3 -3.68 3 -3 3 C-3 2.34 -3 1.68 -3 1 C-1 0 -1 0 0 0 Z " fill="#3C3DBB" transform="translate(113,107)"/>
<path d="M0 0 C4.08072342 0.55144911 4.91330796 0.91330796 8 4 C5.03 3.67 2.06 3.34 -1 3 C-0.67 2.01 -0.34 1.02 0 0 Z " fill="#484AB4" transform="translate(132,117)"/>
<path d="M0 0 C0.66 1.32 1.32 2.64 2 4 C-0.35438733 5.42944945 -1.48032433 6.08661261 -4.25 5.625 C-4.8275 5.41875 -5.405 5.2125 -6 5 C-5.195625 4.731875 -4.39125 4.46375 -3.5625 4.1875 C-2.716875 3.795625 -1.87125 3.40375 -1 3 C-0.67 2.01 -0.34 1.02 0 0 Z " fill="#4546B6" transform="translate(108,115)"/>
</svg>
