<?xml version="1.0" encoding="UTF-8"?>
<svg version="1.1" xmlns="http://www.w3.org/2000/svg" width="440" height="440">
<path d="M0 0 C1.26166992 0.25740967 1.26166992 0.25740967 2.54882812 0.52001953 C41.09654491 8.45506278 76.83225685 26.27888559 105.77734375 52.96484375 C107.78864691 54.80647634 109.84819672 56.5608619 111.9375 58.3125 C121.52384299 66.70296117 129.5363141 76.72582137 137 87 C137.77730469 88.05832031 138.55460937 89.11664063 139.35546875 90.20703125 C157.29761105 115.42988277 169.02109948 144.74640427 175 175 C175.16226074 175.74878418 175.32452148 176.49756836 175.49169922 177.26904297 C180.9086771 202.76629385 180.55578633 233.5680493 175 259 C174.82839355 259.84111328 174.65678711 260.68222656 174.47998047 261.54882812 C166.54493722 300.09654491 148.72111441 335.83225685 122.03515625 364.77734375 C120.19352366 366.78864691 118.4391381 368.84819672 116.6875 370.9375 C108.29703883 380.52384299 98.27417863 388.5363141 88 396 C86.94167969 396.77730469 85.88335937 397.55460937 84.79296875 398.35546875 C59.57011723 416.29761105 30.25359573 428.02109948 0 434 C-0.74878418 434.16226074 -1.49756836 434.32452148 -2.26904297 434.49169922 C-27.76629385 439.9086771 -58.5680493 439.55578633 -84 434 C-84.84111328 433.82839355 -85.68222656 433.65678711 -86.54882812 433.47998047 C-125.09654491 425.54493722 -160.83225685 407.72111441 -189.77734375 381.03515625 C-191.78864691 379.19352366 -193.84819672 377.4391381 -195.9375 375.6875 C-205.52384299 367.29703883 -213.5363141 357.27417863 -221 347 C-221.77730469 345.94167969 -222.55460937 344.88335937 -223.35546875 343.79296875 C-241.29761105 318.57011723 -253.02109948 289.25359573 -259 259 C-259.24339111 257.87682373 -259.24339111 257.87682373 -259.49169922 256.73095703 C-264.9086771 231.23370615 -264.55578633 200.4319507 -259 175 C-258.82839355 174.15888672 -258.65678711 173.31777344 -258.47998047 172.45117188 C-250.54493722 133.90345509 -232.72111441 98.16774315 -206.03515625 69.22265625 C-204.19352366 67.21135309 -202.4391381 65.15180328 -200.6875 63.0625 C-192.29703883 53.47615701 -182.27417863 45.4636859 -172 38 C-170.41251953 36.83404297 -170.41251953 36.83404297 -168.79296875 35.64453125 C-143.57011723 17.70238895 -114.25359573 5.97890052 -84 0 C-82.87682373 -0.24339111 -82.87682373 -0.24339111 -81.73095703 -0.49169922 C-56.23370615 -5.9086771 -25.4319507 -5.55578633 0 0 Z " fill="#FEFEFE" transform="translate(262,3)"/>
<path d="M0 0 C6.10628601 3.75501496 10.11851345 9.09844095 12 16 C13.45974392 27.60680857 12.83604638 38.74103187 5.6875 48.375 C-1.11483669 55.01914281 -7.84263808 56.34677037 -17.14038086 56.3828125 C-24.32757826 56.21601184 -29.77070986 54.28425678 -34.8359375 49.1328125 C-40.48646679 42.04897822 -42.54833186 35.55804753 -42.4375 26.625 C-42.43065186 25.78300049 -42.42380371 24.94100098 -42.41674805 24.07348633 C-42.25897042 17.98634286 -41.52374354 13.10535781 -38 8 C-37.29875 6.9275 -36.5975 5.855 -35.875 4.75 C-26.02511837 -4.67162591 -12.10413881 -6.08857163 0 0 Z " fill="#21416C" transform="translate(387,185)"/>
<path d="M0 0 C4.51397555 1.77267912 7.30181524 4.69126716 10.67163086 8.11230469 C11.37104294 8.80693314 12.07045502 9.50156158 12.7910614 10.21723938 C14.26367189 11.68645355 15.73001155 13.16197643 17.19042969 14.64331055 C19.42568641 16.90533099 21.68634023 19.13945809 23.95092773 21.37207031 C25.380268 22.80471471 26.8080564 24.23890942 28.23413086 25.67480469 C28.91010818 26.34066086 29.58608551 27.00651703 30.282547 27.69255066 C33.08382345 30.56489726 34.90124529 32.58412563 36.21459961 36.42041016 C36.10418986 39.72407698 35.46549807 41.02321788 33.50756836 43.65917969 C32.92370361 44.46645508 32.33983887 45.27373047 31.73828125 46.10546875 C31.10140381 46.94948242 30.46452637 47.79349609 29.80834961 48.66308594 C28.50664335 50.43619267 27.2071825 52.21094993 25.90991211 53.98730469 C25.26441406 54.86563965 24.61891602 55.74397461 23.95385742 56.64892578 C22.2743119 59.0098639 20.71877771 61.39960384 19.20678711 63.87011719 C18.775354 64.56758057 18.3439209 65.26504395 17.89941406 65.98364258 C17.10802423 67.27995851 16.33459657 68.58747001 15.58251953 69.90698242 C13.64115095 73.02761751 12.35542832 74.14860172 8.83569336 75.30371094 C2.68413273 73.51839997 0.44276249 68.4434625 -2.87915039 63.22558594 C-4.22215388 61.23331801 -5.56719615 59.24242288 -6.91430664 57.25292969 C-8.25915425 55.22457078 -9.60159548 53.19461438 -10.94165039 51.16308594 C-12.28553599 49.12976241 -13.6305774 47.09720229 -14.97680664 45.06542969 C-15.62149902 44.08687012 -16.26619141 43.10831055 -16.93041992 42.10009766 C-19.37173304 38.49899258 -21.97301125 35.0263261 -24.62695312 31.5793457 C-26.28219087 28.46798928 -26.43506387 26.70871835 -25.87915039 23.22558594 C-23.86303711 20.41723633 -23.86303711 20.41723633 -21.05883789 17.57324219 C-20.5625589 17.06885117 -20.06627991 16.56446014 -19.55496216 16.04478455 C-18.50480109 14.9861828 -17.44696617 13.9351455 -16.38208008 12.89135742 C-14.75693202 11.29082544 -13.16946568 9.6585885 -11.58227539 8.02050781 C-10.55572049 6.99432332 -9.5271387 5.9701616 -8.49633789 4.94824219 C-7.56418457 4.01761963 -6.63203125 3.08699707 -5.67163086 2.12817383 C-2.87915039 0.22558594 -2.87915039 0.22558594 0 0 Z " fill="#4591F5" transform="translate(94.879150390625,153.7744140625)"/>
<path d="M0 0 C4.05536583 1.29561796 4.9979911 2.37583889 7.22802734 5.94042969 C7.87666748 6.94912109 8.52530762 7.9578125 9.19360352 8.99707031 C9.85851807 10.07794922 10.52343262 11.15882813 11.20849609 12.27246094 C12.61556598 14.47542452 14.02441447 16.67725311 15.43505859 18.87792969 C16.45067871 20.481604 16.45067871 20.481604 17.48681641 22.11767578 C19.89846215 25.86590371 22.44819139 29.49183328 25.08349609 33.08496094 C26.53969285 35.0713892 27.97757748 37.07138331 29.39599609 39.08496094 C29.84547607 39.61629639 30.29495605 40.14763184 30.75805664 40.69506836 C35.37169668 46.73858588 35.06442225 52.96523465 34.88305664 60.34106445 C34.83317942 62.4106004 34.82154121 64.47776555 34.81591797 66.54785156 C34.69154907 76.64163147 34.69154907 76.64163147 32.39599609 80.08496094 C29.61190796 80.56484985 29.61190796 80.56484985 26.39599609 80.08496094 C23.7003479 78.1512146 23.7003479 78.1512146 20.94140625 75.40673828 C20.17931351 74.66041641 20.17931351 74.66041641 19.40182495 73.89901733 C17.73084921 72.25439449 16.08271876 70.58885549 14.43505859 68.92089844 C13.27865701 67.76853977 12.12136608 66.61707294 10.96322632 65.46646118 C8.54112053 63.05319556 6.13018456 60.62942579 3.7265625 58.19775391 C0.64643634 55.08344256 -2.45984554 51.99684668 -5.57500267 48.91762352 C-7.969093 46.54522696 -10.34869257 44.15870871 -12.72417068 41.76768875 C-13.86403812 40.62382221 -15.00837021 39.48438668 -16.15720749 38.34952927 C-17.76171388 36.76028371 -19.34569366 35.15302794 -20.92578125 33.53955078 C-21.83145844 32.62910004 -22.73713562 31.71864929 -23.67025757 30.78060913 C-25.98170514 27.55844428 -26.16911606 25.96827158 -25.60400391 22.08496094 C-23.01541421 18.40026891 -19.79378025 15.32866763 -16.58911133 12.17797852 C-15.04537437 10.65128866 -13.54266758 9.09099088 -12.03955078 7.52441406 C-11.06199728 6.54363646 -10.0822475 5.56504199 -9.10009766 4.58886719 C-8.21507568 3.70013916 -7.33005371 2.81141113 -6.41821289 1.89575195 C-3.60400391 0.08496094 -3.60400391 0.08496094 0 0 Z " fill="#1B3B68" transform="translate(56.60400390625,192.9150390625)"/>
<path d="M0 0 C5.2792028 1.62703299 8.24770729 4.79380762 12.01171875 8.7265625 C13.1090332 9.79583984 13.1090332 9.79583984 14.22851562 10.88671875 C19.47613989 16.22743812 19.47613989 16.22743812 19.89408875 19.95239258 C19.50087998 23.82359411 18.52782732 24.90652677 15.81396484 27.63818359 C14.99245941 28.47860199 14.17095398 29.31902039 13.32455444 30.18490601 C12.42467804 31.07263702 11.52480164 31.96036804 10.59765625 32.875 C9.6796524 33.7987442 8.76164856 34.7224884 7.81582642 35.67422485 C5.87331189 37.62557292 3.92039204 39.56568833 1.95947266 41.49853516 C-0.54956314 43.97338458 -3.03069157 46.47420279 -5.50463295 48.98407555 C-7.87268356 51.37905759 -10.26337711 53.75087895 -12.65234375 56.125 C-13.54007477 57.0248764 -14.42780579 57.92475281 -15.34243774 58.85189819 C-16.18285614 59.67340363 -17.02327454 60.49490906 -17.88916016 61.34130859 C-18.62196198 62.06933685 -19.35476379 62.79736511 -20.10977173 63.54745483 C-23.06095278 65.5277805 -24.94102135 65.47464125 -28.42578125 65.1015625 C-31.48103208 62.04631167 -30.16891909 53.14450998 -30.21508789 49.07104492 C-29.96446332 38.52622058 -26.87143715 33.11148208 -20.18505859 25.31103516 C-18.1272163 22.72659542 -16.37445229 20.02565056 -14.6015625 17.23828125 C-13.9506665 16.22338623 -13.29977051 15.20849121 -12.62915039 14.1628418 C-11.34644337 12.15261015 -10.07566629 10.13470623 -8.81811523 8.10864258 C-4.41707228 1.42031286 -4.41707228 1.42031286 0 0 Z " fill="#02589B" transform="translate(138.42578125,197.8984375)"/>
<path d="M0 0 C4.77031734 2.15693523 7.48294611 4.47939921 9.76953125 9.31640625 C12.6679736 18.49480702 12.3536297 28.2373162 7.95703125 36.87890625 C3.67212704 41.6535138 0.46832947 44.13943587 -6.04296875 44.56640625 C-10.73703375 44.48043436 -14.22414131 43.30050291 -17.640625 39.921875 C-22.88505813 33.88236746 -23.57237222 29.65687606 -23.54296875 21.94140625 C-23.55908203 21.10351562 -23.57519531 20.265625 -23.59179688 19.40234375 C-23.59653636 13.3737199 -22.76433804 9.00828966 -18.4765625 4.453125 C-17.87972656 3.97488281 -17.28289062 3.49664062 -16.66796875 3.00390625 C-16.06855469 2.51277344 -15.46914063 2.02164063 -14.8515625 1.515625 C-10.45465267 -1.73702878 -5.11649985 -1.56810416 0 0 Z " fill="#FBFCFC" transform="translate(378.23046875,189.68359375)"/>
<path d="M0 0 C3 0.25 3 0.25 5 2.25 C5.20953649 5.11750024 5.30114071 7.89615237 5.30859375 10.765625 C5.33376475 12.50911777 5.35916261 14.25260727 5.38476562 15.99609375 C5.41345225 18.74559605 5.43746604 21.49504132 5.45629883 24.24462891 C5.47803023 26.89776986 5.51748791 29.55022363 5.55859375 32.203125 C5.55870956 33.01896057 5.55882538 33.83479614 5.5589447 34.675354 C5.6434727 39.57957362 6.25543578 43.01790538 9 47.25 C12.42329851 49.53219901 13.84137668 49.54741163 17.875 49.5625 C18.90367187 49.57925781 19.93234375 49.59601563 20.9921875 49.61328125 C24.47193422 49.19300015 26.26703839 48.43541704 29 46.25 C31.46025757 41.73541125 31.31157089 37.30711927 31.34375 32.30078125 C31.3583728 31.44695358 31.37299561 30.59312592 31.38806152 29.71342468 C31.45019391 26.07203792 31.49006792 22.43048769 31.53173828 18.78881836 C31.56538242 16.12595567 31.61049471 13.46345882 31.65625 10.80078125 C31.6615271 9.9737117 31.6668042 9.14664215 31.67224121 8.29450989 C31.77433906 2.47566094 31.77433906 2.47566094 34 0.25 C37 0 37 0 40 0.25 C42.57900288 2.82900288 42.2478646 4.57532698 42.27789307 8.09074402 C42.2738446 8.88966568 42.26979614 9.68858734 42.265625 10.51171875 C42.26849518 11.7477459 42.26849518 11.7477459 42.27142334 13.00874329 C42.27278609 14.75640161 42.26908337 16.50407003 42.26074219 18.25170898 C42.25011168 20.90957862 42.26059885 23.5667618 42.2734375 26.22460938 C42.27211459 27.92448065 42.26954948 29.62435149 42.265625 31.32421875 C42.26967346 32.11301926 42.27372192 32.90181976 42.27789307 33.71452332 C42.21589789 41.12725479 41.01644717 47.12682244 35.80859375 52.671875 C29.43154091 58.23630123 22.56977061 58.90457523 14.30859375 58.62890625 C7.06427423 57.79927344 2.86245324 54.69121584 -1.7734375 49.2265625 C-5.15308543 43.78037826 -5.29637795 38.40038006 -5.265625 32.203125 C-5.26753845 31.35071228 -5.2694519 30.49829956 -5.27142334 29.62005615 C-5.27277856 27.82824405 -5.26912862 26.0364219 -5.26074219 24.24462891 C-5.24998002 21.49489555 -5.26068691 18.74580765 -5.2734375 15.99609375 C-5.27211683 14.25260272 -5.26955634 12.5091121 -5.265625 10.765625 C-5.26967346 9.9416925 -5.27372192 9.11776001 -5.27789307 8.26885986 C-5.21301542 0.43441795 -5.21301542 0.43441795 0 0 Z " fill="#274670" transform="translate(240,182.75)"/>
<path d="M0 0 C0.66 0.66 1.32 1.32 2 2 C1.625 4.125 1.625 4.125 1 6 C-1.37844693 6.8441363 -2.55377202 7.17903098 -4.9375 6.22265625 C-5.618125 5.83980469 -6.29875 5.45695313 -7 5.0625 C-12.554633 2.40473686 -17.93971032 2.27208811 -24 3 C-26.76807046 3.94549804 -26.76807046 3.94549804 -29 5 C-29 7.97 -29 10.94 -29 14 C-22.83272182 17.23346562 -16.7112685 19.59177508 -10.09179688 21.7109375 C-4.97573075 23.42705707 -0.80225688 25.27476915 2.2890625 29.94921875 C3.85760849 34.47387065 3.78630079 39.50926276 2.34765625 44.06640625 C-0.1090776 48.94824219 -3.21756386 50.8185379 -8 53 C-16.82746713 55.21795657 -26.76235594 55.09313291 -35 51 C-38.0625 48.8125 -38.0625 48.8125 -40 47 C-39.42655063 44.13275314 -39.1385485 43.1385485 -37 41 C-34.3743354 41.28132121 -32.67640237 42.18491293 -30.375 43.5 C-23.2521079 46.66572982 -16.97454821 46.50225375 -9.71484375 43.88671875 C-7.81285307 43.11661115 -7.81285307 43.11661115 -7 41 C-6.56085538 37.03573774 -6.56085538 37.03573774 -8.03515625 33.4921875 C-10.95238024 31.27672117 -14.26361584 30.25249899 -17.6875 29.0625 C-33.77872534 23.23438057 -33.77872534 23.23438057 -38 18 C-39.45928384 13.62214849 -39.74704454 9.56527217 -39 5 C-36.48109079 0.63176504 -32.73828422 -3.26405625 -27.76171875 -4.6015625 C-17.61698777 -6.06515877 -8.61211765 -5.98315542 0 0 Z " fill="#20406C" transform="translate(333,187)"/>
<path d="M0 0 C2.640625 0.31640625 2.640625 0.31640625 4.34375 1.9765625 C4.85421875 2.76933594 5.3646875 3.56210938 5.890625 4.37890625 C6.47457031 5.27480469 7.05851563 6.17070312 7.66015625 7.09375 C11.37407074 13.13710198 15.0451965 19.20173194 18.640625 25.31640625 C19.43608304 24.15232132 20.22651894 22.98480638 21.015625 21.81640625 C21.82966797 20.61177734 21.82966797 20.61177734 22.66015625 19.3828125 C24.20037238 16.99805972 25.65869601 14.60561874 27.08984375 12.15625 C27.52055176 11.43179688 27.95125977 10.70734375 28.39501953 9.9609375 C29.26114744 8.49960935 30.11267824 7.029522 30.94873047 5.55078125 C32.08234844 3.65615512 33.15091419 1.94627017 34.640625 0.31640625 C37.32421875 -0.2734375 37.32421875 -0.2734375 39.640625 0.31640625 C40.300625 0.97640625 40.960625 1.63640625 41.640625 2.31640625 C41.51645976 7.47403929 38.22598836 11.43816436 35.453125 15.56640625 C34.98326172 16.27925781 34.51339844 16.99210937 34.02929688 17.7265625 C33.32063477 18.79970703 33.32063477 18.79970703 32.59765625 19.89453125 C31.87993042 20.98991211 31.87993042 20.98991211 31.14770508 22.10742188 C30.13695881 23.58891098 29.07508248 25.03668279 27.9675293 26.44726562 C23.2947079 32.62109607 22.77498069 37.69261385 22.828125 45.31640625 C22.80402397 47.37894669 22.77685665 49.44145441 22.74609375 51.50390625 C22.74762451 52.40496094 22.74915527 53.30601562 22.75073242 54.234375 C22.640625 56.31640625 22.640625 56.31640625 21.640625 57.31640625 C19.30765067 57.35733562 16.97357275 57.35882348 14.640625 57.31640625 C13.43095837 54.897073 13.54497824 53.39444487 13.5703125 50.6953125 C13.50716584 39.12644278 13.08312566 31.549883 5.640625 22.31640625 C3.73827803 19.56771472 1.9376225 16.75969151 0.140625 13.94140625 C-0.54567993 12.92264404 -0.54567993 12.92264404 -1.24584961 11.88330078 C-4.39640107 7.00694253 -4.39640107 7.00694253 -4.203125 3.40234375 C-2.98903668 0.40084763 -2.98903668 0.40084763 0 0 Z " fill="#1F3F6B" transform="translate(184.359375,182.68359375)"/>
</svg>
